
    <svg width="1200" height="675" viewBox="0 0 1200 675" xmlns="http://www.w3.org/2000/svg" role="img" aria-label="crm-implementation-analysis thumbnail">
      
    <defs>
      <linearGradient id="bg-crm-implementation-analysis" x1="0" y1="0" x2="1" y2="1">
        <stop offset="0" stop-color="#f8fafc"/>
        <stop offset="0.45" stop-color="#eef5ff"/>
        <stop offset="1" stop-color="#f8fafc"/>
      </linearGradient>
      <radialGradient id="a-crm-implementation-analysis" cx="34%" cy="34%" r="64%">
        <stop offset="0" stop-color="#7c3aed" stop-opacity="0.34"/>
        <stop offset="1" stop-color="#7c3aed" stop-opacity="0"/>
      </radialGradient>
      <radialGradient id="b-crm-implementation-analysis" cx="78%" cy="24%" r="58%">
        <stop offset="0" stop-color="#ec4899" stop-opacity="0.26"/>
        <stop offset="1" stop-color="#ec4899" stop-opacity="0"/>
      </radialGradient>
      <radialGradient id="c-crm-implementation-analysis" cx="72%" cy="78%" r="62%">
        <stop offset="0" stop-color="#06b6d4" stop-opacity="0.24"/>
        <stop offset="1" stop-color="#06b6d4" stop-opacity="0"/>
      </radialGradient>
      <linearGradient id="main-crm-implementation-analysis" x1="0" y1="0" x2="1" y2="1">
        <stop offset="0" stop-color="#7c3aed"/>
        <stop offset="0.55" stop-color="#ec4899"/>
        <stop offset="1" stop-color="#06b6d4"/>
      </linearGradient>
      <filter id="shadow-crm-implementation-analysis" x="-20%" y="-20%" width="140%" height="140%">
        <feDropShadow dx="0" dy="18" stdDeviation="22" flood-color="#0f172a" flood-opacity="0.16"/>
      </filter>
      <pattern id="grid-crm-implementation-analysis" width="42" height="42" patternUnits="userSpaceOnUse">
        <path d="M 42 0 L 0 0 0 42" fill="none" stroke="#0f172a" stroke-opacity="0.045" stroke-width="1"/>
      </pattern>
    </defs>
  
      <rect width="1200" height="675" fill="url(#bg-crm-implementation-analysis)"/>
      <rect width="1200" height="675" fill="url(#grid-crm-implementation-analysis)"/>
      <rect width="1200" height="675" fill="url(#a-crm-implementation-analysis)"/>
      <rect width="1200" height="675" fill="url(#b-crm-implementation-analysis)"/>
      <rect width="1200" height="675" fill="url(#c-crm-implementation-analysis)"/>
      <circle cx="1050" cy="92" r="118" fill="#ec4899" opacity="0.08"/>
      <circle cx="130" cy="580" r="170" fill="#7c3aed" opacity="0.07"/>
      
    <rect x="205" y="105" width="790" height="455" rx="28" fill="#ffffff" opacity="0.84" filter="url(#shadow-crm-implementation-analysis)"/>
    <circle cx="600" cy="330" r="98" fill="url(#main-crm-implementation-analysis)" opacity="0.92"/>
    <circle cx="600" cy="292" r="38" fill="#ffffff" opacity="0.9"/>
    <path d="M535 385c24-42 106-42 130 0" fill="none" stroke="#ffffff" stroke-width="26" stroke-linecap="round" opacity="0.9"/>
    <path d="M600 330 L360 225" stroke="#06b6d4" stroke-width="6" stroke-linecap="round" opacity="0.4"/><path d="M600 330 L480 420" stroke="#ec4899" stroke-width="6" stroke-linecap="round" opacity="0.4"/><path d="M600 330 L720 420" stroke="#06b6d4" stroke-width="6" stroke-linecap="round" opacity="0.4"/><path d="M600 330 L840 225" stroke="#ec4899" stroke-width="6" stroke-linecap="round" opacity="0.4"/>
    <circle cx="360" cy="225" r="58" fill="#ec4899" opacity="0.88"/><circle cx="360" cy="209" r="18" fill="#ffffff" opacity="0.9"/><path d="M328 251c16-26 48-26 64 0" fill="none" stroke="#ffffff" stroke-width="14" stroke-linecap="round" opacity="0.9"/><circle cx="480" cy="420" r="58" fill="#7c3aed" opacity="0.88"/><circle cx="480" cy="404" r="18" fill="#ffffff" opacity="0.9"/><path d="M448 446c16-26 48-26 64 0" fill="none" stroke="#ffffff" stroke-width="14" stroke-linecap="round" opacity="0.9"/><circle cx="720" cy="420" r="58" fill="#ec4899" opacity="0.88"/><circle cx="720" cy="404" r="18" fill="#ffffff" opacity="0.9"/><path d="M688 446c16-26 48-26 64 0" fill="none" stroke="#ffffff" stroke-width="14" stroke-linecap="round" opacity="0.9"/><circle cx="840" cy="225" r="58" fill="#7c3aed" opacity="0.88"/><circle cx="840" cy="209" r="18" fill="#ffffff" opacity="0.9"/><path d="M808 251c16-26 48-26 64 0" fill="none" stroke="#ffffff" stroke-width="14" stroke-linecap="round" opacity="0.9"/>
  
    </svg>
  