
    <svg width="1200" height="675" viewBox="0 0 1200 675" xmlns="http://www.w3.org/2000/svg" role="img" aria-label="customer-database-sql-analysis thumbnail">
      
    <defs>
      <linearGradient id="bg-customer-database-sql-analysis" x1="0" y1="0" x2="1" y2="1">
        <stop offset="0" stop-color="#f8fafc"/>
        <stop offset="0.45" stop-color="#eef5ff"/>
        <stop offset="1" stop-color="#f8fafc"/>
      </linearGradient>
      <radialGradient id="a-customer-database-sql-analysis" cx="34%" cy="34%" r="64%">
        <stop offset="0" stop-color="#0ea5e9" stop-opacity="0.34"/>
        <stop offset="1" stop-color="#0ea5e9" stop-opacity="0"/>
      </radialGradient>
      <radialGradient id="b-customer-database-sql-analysis" cx="78%" cy="24%" r="58%">
        <stop offset="0" stop-color="#14b8a6" stop-opacity="0.26"/>
        <stop offset="1" stop-color="#14b8a6" stop-opacity="0"/>
      </radialGradient>
      <radialGradient id="c-customer-database-sql-analysis" cx="72%" cy="78%" r="62%">
        <stop offset="0" stop-color="#8b5cf6" stop-opacity="0.24"/>
        <stop offset="1" stop-color="#8b5cf6" stop-opacity="0"/>
      </radialGradient>
      <linearGradient id="main-customer-database-sql-analysis" x1="0" y1="0" x2="1" y2="1">
        <stop offset="0" stop-color="#0ea5e9"/>
        <stop offset="0.55" stop-color="#14b8a6"/>
        <stop offset="1" stop-color="#8b5cf6"/>
      </linearGradient>
      <filter id="shadow-customer-database-sql-analysis" x="-20%" y="-20%" width="140%" height="140%">
        <feDropShadow dx="0" dy="18" stdDeviation="22" flood-color="#0f172a" flood-opacity="0.16"/>
      </filter>
      <pattern id="grid-customer-database-sql-analysis" width="42" height="42" patternUnits="userSpaceOnUse">
        <path d="M 42 0 L 0 0 0 42" fill="none" stroke="#0f172a" stroke-opacity="0.045" stroke-width="1"/>
      </pattern>
    </defs>
  
      <rect width="1200" height="675" fill="url(#bg-customer-database-sql-analysis)"/>
      <rect width="1200" height="675" fill="url(#grid-customer-database-sql-analysis)"/>
      <rect width="1200" height="675" fill="url(#a-customer-database-sql-analysis)"/>
      <rect width="1200" height="675" fill="url(#b-customer-database-sql-analysis)"/>
      <rect width="1200" height="675" fill="url(#c-customer-database-sql-analysis)"/>
      <circle cx="1050" cy="92" r="118" fill="#14b8a6" opacity="0.08"/>
      <circle cx="130" cy="580" r="170" fill="#0ea5e9" opacity="0.07"/>
      
    <rect x="205" y="105" width="790" height="455" rx="28" fill="#ffffff" opacity="0.84" filter="url(#shadow-customer-database-sql-analysis)"/>
    <ellipse cx="600" cy="190" rx="220" ry="62" fill="#0ea5e9" opacity="0.92"/>
    <path d="M380 190v250c0 34 98 62 220 62s220-28 220-62V190" fill="url(#main-customer-database-sql-analysis)" opacity="0.74"/>
    <ellipse cx="600" cy="300" rx="220" ry="62" fill="none" stroke="#ffffff" stroke-width="8" opacity="0.5"/>
    <ellipse cx="600" cy="410" rx="220" ry="62" fill="none" stroke="#ffffff" stroke-width="8" opacity="0.5"/>
    <path d="M245 235 L375 235" stroke="#8b5cf6" stroke-width="6" stroke-linecap="round" opacity="0.5"/><path d="M825 242 L958 196" stroke="#14b8a6" stroke-width="6" stroke-linecap="round" opacity="0.5"/><path d="M285 474 L397 430" stroke="#8b5cf6" stroke-width="6" stroke-linecap="round" opacity="0.5"/><path d="M810 420 L945 480" stroke="#14b8a6" stroke-width="6" stroke-linecap="round" opacity="0.5"/>
    <circle cx="245" cy="235" r="25" fill="#8b5cf6"/><circle cx="958" cy="196" r="25" fill="#14b8a6"/><circle cx="285" cy="474" r="25" fill="#8b5cf6"/><circle cx="945" cy="480" r="25" fill="#14b8a6"/>
  
    </svg>
  