
    <svg width="1200" height="675" viewBox="0 0 1200 675" xmlns="http://www.w3.org/2000/svg" role="img" aria-label="digital-marketing-campaign-analytics thumbnail">
      
    <defs>
      <linearGradient id="bg-digital-marketing-campaign-analytics" x1="0" y1="0" x2="1" y2="1">
        <stop offset="0" stop-color="#f8fafc"/>
        <stop offset="0.45" stop-color="#eef5ff"/>
        <stop offset="1" stop-color="#f8fafc"/>
      </linearGradient>
      <radialGradient id="a-digital-marketing-campaign-analytics" cx="34%" cy="34%" r="64%">
        <stop offset="0" stop-color="#ef4444" stop-opacity="0.34"/>
        <stop offset="1" stop-color="#ef4444" stop-opacity="0"/>
      </radialGradient>
      <radialGradient id="b-digital-marketing-campaign-analytics" cx="78%" cy="24%" r="58%">
        <stop offset="0" stop-color="#f59e0b" stop-opacity="0.26"/>
        <stop offset="1" stop-color="#f59e0b" stop-opacity="0"/>
      </radialGradient>
      <radialGradient id="c-digital-marketing-campaign-analytics" cx="72%" cy="78%" r="62%">
        <stop offset="0" stop-color="#2563eb" stop-opacity="0.24"/>
        <stop offset="1" stop-color="#2563eb" stop-opacity="0"/>
      </radialGradient>
      <linearGradient id="main-digital-marketing-campaign-analytics" x1="0" y1="0" x2="1" y2="1">
        <stop offset="0" stop-color="#ef4444"/>
        <stop offset="0.55" stop-color="#f59e0b"/>
        <stop offset="1" stop-color="#2563eb"/>
      </linearGradient>
      <filter id="shadow-digital-marketing-campaign-analytics" x="-20%" y="-20%" width="140%" height="140%">
        <feDropShadow dx="0" dy="18" stdDeviation="22" flood-color="#0f172a" flood-opacity="0.16"/>
      </filter>
      <pattern id="grid-digital-marketing-campaign-analytics" width="42" height="42" patternUnits="userSpaceOnUse">
        <path d="M 42 0 L 0 0 0 42" fill="none" stroke="#0f172a" stroke-opacity="0.045" stroke-width="1"/>
      </pattern>
    </defs>
  
      <rect width="1200" height="675" fill="url(#bg-digital-marketing-campaign-analytics)"/>
      <rect width="1200" height="675" fill="url(#grid-digital-marketing-campaign-analytics)"/>
      <rect width="1200" height="675" fill="url(#a-digital-marketing-campaign-analytics)"/>
      <rect width="1200" height="675" fill="url(#b-digital-marketing-campaign-analytics)"/>
      <rect width="1200" height="675" fill="url(#c-digital-marketing-campaign-analytics)"/>
      <circle cx="1050" cy="92" r="118" fill="#f59e0b" opacity="0.08"/>
      <circle cx="130" cy="580" r="170" fill="#ef4444" opacity="0.07"/>
      
    <rect x="195" y="105" width="810" height="455" rx="28" fill="#ffffff" opacity="0.84" filter="url(#shadow-digital-marketing-campaign-analytics)"/>
    <path d="M298 360 654 214v254L298 360Z" fill="url(#main-digital-marketing-campaign-analytics)" opacity="0.86"/>
    <path d="M654 214c92 26 158 74 158 127s-66 101-158 127V214Z" fill="#ef4444" opacity="0.88"/>
    <rect x="284" y="334" width="94" height="138" rx="26" fill="#ffffff" opacity="0.92"/>
    <path d="M765 170c42 18 76 48 96 86M785 514c42-18 76-48 96-86" fill="none" stroke="#f59e0b" stroke-width="12" stroke-linecap="round" opacity="0.72"/>
    <circle cx="876" cy="342" r="26" fill="#2563eb"/>
    <circle cx="910" cy="245" r="16" fill="#f59e0b"/>
    <circle cx="910" cy="440" r="16" fill="#ef4444"/>
  
    </svg>
  