
    <svg width="1200" height="675" viewBox="0 0 1200 675" xmlns="http://www.w3.org/2000/svg" role="img" aria-label="ecommerce-process-improvement thumbnail">
      
    <defs>
      <linearGradient id="bg-ecommerce-process-improvement" x1="0" y1="0" x2="1" y2="1">
        <stop offset="0" stop-color="#f8fafc"/>
        <stop offset="0.45" stop-color="#eef5ff"/>
        <stop offset="1" stop-color="#f8fafc"/>
      </linearGradient>
      <radialGradient id="a-ecommerce-process-improvement" cx="34%" cy="34%" r="64%">
        <stop offset="0" stop-color="#ea580c" stop-opacity="0.34"/>
        <stop offset="1" stop-color="#ea580c" stop-opacity="0"/>
      </radialGradient>
      <radialGradient id="b-ecommerce-process-improvement" cx="78%" cy="24%" r="58%">
        <stop offset="0" stop-color="#0891b2" stop-opacity="0.26"/>
        <stop offset="1" stop-color="#0891b2" stop-opacity="0"/>
      </radialGradient>
      <radialGradient id="c-ecommerce-process-improvement" cx="72%" cy="78%" r="62%">
        <stop offset="0" stop-color="#22c55e" stop-opacity="0.24"/>
        <stop offset="1" stop-color="#22c55e" stop-opacity="0"/>
      </radialGradient>
      <linearGradient id="main-ecommerce-process-improvement" x1="0" y1="0" x2="1" y2="1">
        <stop offset="0" stop-color="#ea580c"/>
        <stop offset="0.55" stop-color="#0891b2"/>
        <stop offset="1" stop-color="#22c55e"/>
      </linearGradient>
      <filter id="shadow-ecommerce-process-improvement" x="-20%" y="-20%" width="140%" height="140%">
        <feDropShadow dx="0" dy="18" stdDeviation="22" flood-color="#0f172a" flood-opacity="0.16"/>
      </filter>
      <pattern id="grid-ecommerce-process-improvement" width="42" height="42" patternUnits="userSpaceOnUse">
        <path d="M 42 0 L 0 0 0 42" fill="none" stroke="#0f172a" stroke-opacity="0.045" stroke-width="1"/>
      </pattern>
    </defs>
  
      <rect width="1200" height="675" fill="url(#bg-ecommerce-process-improvement)"/>
      <rect width="1200" height="675" fill="url(#grid-ecommerce-process-improvement)"/>
      <rect width="1200" height="675" fill="url(#a-ecommerce-process-improvement)"/>
      <rect width="1200" height="675" fill="url(#b-ecommerce-process-improvement)"/>
      <rect width="1200" height="675" fill="url(#c-ecommerce-process-improvement)"/>
      <circle cx="1050" cy="92" r="118" fill="#0891b2" opacity="0.08"/>
      <circle cx="130" cy="580" r="170" fill="#ea580c" opacity="0.07"/>
      
    <rect x="190" y="105" width="820" height="455" rx="28" fill="#ffffff" opacity="0.84" filter="url(#shadow-ecommerce-process-improvement)"/>
    <path d="M305 200h68l52 230h322l62-168H458" fill="none" stroke="#ea580c" stroke-width="26" stroke-linecap="round" stroke-linejoin="round"/>
    <circle cx="468" cy="500" r="36" fill="#0891b2"/>
    <circle cx="718" cy="500" r="36" fill="#0891b2"/>
    <rect x="505" y="180" width="245" height="160" rx="32" fill="#22c55e" opacity="0.82"/>
    <path d="M552 260l54 54 118-128" fill="none" stroke="#ffffff" stroke-width="24" stroke-linecap="round" stroke-linejoin="round"/>
    <path d="M360 134c90-42 176-48 260-18" fill="none" stroke="#0891b2" stroke-width="12" stroke-linecap="round" opacity="0.6"/>
    <path d="M812 390c42-26 76-56 106-98" fill="none" stroke="#ea580c" stroke-width="12" stroke-linecap="round" opacity="0.6"/>
  
    </svg>
  