
    <svg width="1200" height="675" viewBox="0 0 1200 675" xmlns="http://www.w3.org/2000/svg" role="img" aria-label="it-service-desk-optimization thumbnail">
      
    <defs>
      <linearGradient id="bg-it-service-desk-optimization" x1="0" y1="0" x2="1" y2="1">
        <stop offset="0" stop-color="#f8fafc"/>
        <stop offset="0.45" stop-color="#eef5ff"/>
        <stop offset="1" stop-color="#f8fafc"/>
      </linearGradient>
      <radialGradient id="a-it-service-desk-optimization" cx="34%" cy="34%" r="64%">
        <stop offset="0" stop-color="#64748b" stop-opacity="0.34"/>
        <stop offset="1" stop-color="#64748b" stop-opacity="0"/>
      </radialGradient>
      <radialGradient id="b-it-service-desk-optimization" cx="78%" cy="24%" r="58%">
        <stop offset="0" stop-color="#3b82f6" stop-opacity="0.26"/>
        <stop offset="1" stop-color="#3b82f6" stop-opacity="0"/>
      </radialGradient>
      <radialGradient id="c-it-service-desk-optimization" cx="72%" cy="78%" r="62%">
        <stop offset="0" stop-color="#f97316" stop-opacity="0.24"/>
        <stop offset="1" stop-color="#f97316" stop-opacity="0"/>
      </radialGradient>
      <linearGradient id="main-it-service-desk-optimization" x1="0" y1="0" x2="1" y2="1">
        <stop offset="0" stop-color="#64748b"/>
        <stop offset="0.55" stop-color="#3b82f6"/>
        <stop offset="1" stop-color="#f97316"/>
      </linearGradient>
      <filter id="shadow-it-service-desk-optimization" x="-20%" y="-20%" width="140%" height="140%">
        <feDropShadow dx="0" dy="18" stdDeviation="22" flood-color="#0f172a" flood-opacity="0.16"/>
      </filter>
      <pattern id="grid-it-service-desk-optimization" width="42" height="42" patternUnits="userSpaceOnUse">
        <path d="M 42 0 L 0 0 0 42" fill="none" stroke="#0f172a" stroke-opacity="0.045" stroke-width="1"/>
      </pattern>
    </defs>
  
      <rect width="1200" height="675" fill="url(#bg-it-service-desk-optimization)"/>
      <rect width="1200" height="675" fill="url(#grid-it-service-desk-optimization)"/>
      <rect width="1200" height="675" fill="url(#a-it-service-desk-optimization)"/>
      <rect width="1200" height="675" fill="url(#b-it-service-desk-optimization)"/>
      <rect width="1200" height="675" fill="url(#c-it-service-desk-optimization)"/>
      <circle cx="1050" cy="92" r="118" fill="#3b82f6" opacity="0.08"/>
      <circle cx="130" cy="580" r="170" fill="#64748b" opacity="0.07"/>
      
    <rect x="190" y="105" width="820" height="455" rx="28" fill="#ffffff" opacity="0.84" filter="url(#shadow-it-service-desk-optimization)"/>
    <rect x="285" y="195" width="260" height="155" rx="26" fill="#3b82f6" opacity="0.86"/>
    <rect x="590" y="165" width="325" height="185" rx="30" fill="#64748b" opacity="0.78"/>
    <rect x="360" y="388" width="475" height="120" rx="30" fill="#f97316" opacity="0.86"/>
    <path d="M335 245h160M335 295h112M650 220h205M650 277h132M425 444h340" stroke="#ffffff" stroke-width="16" stroke-linecap="round" opacity="0.65"/>
    <circle cx="830" cy="420" r="84" fill="#ffffff" opacity="0.86"/>
    <path d="M790 420h80M830 380v80" stroke="#3b82f6" stroke-width="18" stroke-linecap="round"/>
  
    </svg>
  