
    <svg width="1200" height="675" viewBox="0 0 1200 675" xmlns="http://www.w3.org/2000/svg" role="img" aria-label="personal-budget-analysis-dashboard thumbnail">
      
    <defs>
      <linearGradient id="bg-personal-budget-analysis-dashboard" x1="0" y1="0" x2="1" y2="1">
        <stop offset="0" stop-color="#f8fafc"/>
        <stop offset="0.45" stop-color="#eef5ff"/>
        <stop offset="1" stop-color="#f8fafc"/>
      </linearGradient>
      <radialGradient id="a-personal-budget-analysis-dashboard" cx="34%" cy="34%" r="64%">
        <stop offset="0" stop-color="#2563eb" stop-opacity="0.34"/>
        <stop offset="1" stop-color="#2563eb" stop-opacity="0"/>
      </radialGradient>
      <radialGradient id="b-personal-budget-analysis-dashboard" cx="78%" cy="24%" r="58%">
        <stop offset="0" stop-color="#10b981" stop-opacity="0.26"/>
        <stop offset="1" stop-color="#10b981" stop-opacity="0"/>
      </radialGradient>
      <radialGradient id="c-personal-budget-analysis-dashboard" cx="72%" cy="78%" r="62%">
        <stop offset="0" stop-color="#fbbf24" stop-opacity="0.24"/>
        <stop offset="1" stop-color="#fbbf24" stop-opacity="0"/>
      </radialGradient>
      <linearGradient id="main-personal-budget-analysis-dashboard" x1="0" y1="0" x2="1" y2="1">
        <stop offset="0" stop-color="#2563eb"/>
        <stop offset="0.55" stop-color="#10b981"/>
        <stop offset="1" stop-color="#fbbf24"/>
      </linearGradient>
      <filter id="shadow-personal-budget-analysis-dashboard" x="-20%" y="-20%" width="140%" height="140%">
        <feDropShadow dx="0" dy="18" stdDeviation="22" flood-color="#0f172a" flood-opacity="0.16"/>
      </filter>
      <pattern id="grid-personal-budget-analysis-dashboard" width="42" height="42" patternUnits="userSpaceOnUse">
        <path d="M 42 0 L 0 0 0 42" fill="none" stroke="#0f172a" stroke-opacity="0.045" stroke-width="1"/>
      </pattern>
    </defs>
  
      <rect width="1200" height="675" fill="url(#bg-personal-budget-analysis-dashboard)"/>
      <rect width="1200" height="675" fill="url(#grid-personal-budget-analysis-dashboard)"/>
      <rect width="1200" height="675" fill="url(#a-personal-budget-analysis-dashboard)"/>
      <rect width="1200" height="675" fill="url(#b-personal-budget-analysis-dashboard)"/>
      <rect width="1200" height="675" fill="url(#c-personal-budget-analysis-dashboard)"/>
      <circle cx="1050" cy="92" r="118" fill="#10b981" opacity="0.08"/>
      <circle cx="130" cy="580" r="170" fill="#2563eb" opacity="0.07"/>
      
    <rect x="200" y="105" width="800" height="455" rx="28" fill="#ffffff" opacity="0.84" filter="url(#shadow-personal-budget-analysis-dashboard)"/>
    <rect x="300" y="235" width="380" height="245" rx="42" fill="url(#main-personal-budget-analysis-dashboard)" opacity="0.9"/>
    <rect x="300" y="285" width="380" height="74" fill="#ffffff" opacity="0.2"/>
    <circle cx="612" cy="358" r="34" fill="#ffffff" opacity="0.9"/>
    <path d="M742 440a126 126 0 1 0-81-225v126Z" fill="#2563eb" opacity="0.85"/>
    <path d="M661 215a126 126 0 0 1 207 95H742Z" fill="#10b981" opacity="0.88"/>
    <path d="M742 310h126a126 126 0 0 1-126 130Z" fill="#fbbf24" opacity="0.9"/>
    <circle cx="742" cy="310" r="58" fill="#ffffff" opacity="0.82"/>
    <path d="M360 164c82-38 167-38 255 0" fill="none" stroke="#fbbf24" stroke-width="12" stroke-linecap="round" opacity="0.72"/>
  
    </svg>
  