
    <svg width="1200" height="675" viewBox="0 0 1200 675" xmlns="http://www.w3.org/2000/svg" role="img" aria-label="power-bi-sales-dashboard thumbnail">
      
    <defs>
      <linearGradient id="bg-power-bi-sales-dashboard" x1="0" y1="0" x2="1" y2="1">
        <stop offset="0" stop-color="#f8fafc"/>
        <stop offset="0.45" stop-color="#eef5ff"/>
        <stop offset="1" stop-color="#f8fafc"/>
      </linearGradient>
      <radialGradient id="a-power-bi-sales-dashboard" cx="34%" cy="34%" r="64%">
        <stop offset="0" stop-color="#f59e0b" stop-opacity="0.34"/>
        <stop offset="1" stop-color="#f59e0b" stop-opacity="0"/>
      </radialGradient>
      <radialGradient id="b-power-bi-sales-dashboard" cx="78%" cy="24%" r="58%">
        <stop offset="0" stop-color="#2563eb" stop-opacity="0.26"/>
        <stop offset="1" stop-color="#2563eb" stop-opacity="0"/>
      </radialGradient>
      <radialGradient id="c-power-bi-sales-dashboard" cx="72%" cy="78%" r="62%">
        <stop offset="0" stop-color="#10b981" stop-opacity="0.24"/>
        <stop offset="1" stop-color="#10b981" stop-opacity="0"/>
      </radialGradient>
      <linearGradient id="main-power-bi-sales-dashboard" x1="0" y1="0" x2="1" y2="1">
        <stop offset="0" stop-color="#f59e0b"/>
        <stop offset="0.55" stop-color="#2563eb"/>
        <stop offset="1" stop-color="#10b981"/>
      </linearGradient>
      <filter id="shadow-power-bi-sales-dashboard" x="-20%" y="-20%" width="140%" height="140%">
        <feDropShadow dx="0" dy="18" stdDeviation="22" flood-color="#0f172a" flood-opacity="0.16"/>
      </filter>
      <pattern id="grid-power-bi-sales-dashboard" width="42" height="42" patternUnits="userSpaceOnUse">
        <path d="M 42 0 L 0 0 0 42" fill="none" stroke="#0f172a" stroke-opacity="0.045" stroke-width="1"/>
      </pattern>
    </defs>
  
      <rect width="1200" height="675" fill="url(#bg-power-bi-sales-dashboard)"/>
      <rect width="1200" height="675" fill="url(#grid-power-bi-sales-dashboard)"/>
      <rect width="1200" height="675" fill="url(#a-power-bi-sales-dashboard)"/>
      <rect width="1200" height="675" fill="url(#b-power-bi-sales-dashboard)"/>
      <rect width="1200" height="675" fill="url(#c-power-bi-sales-dashboard)"/>
      <circle cx="1050" cy="92" r="118" fill="#2563eb" opacity="0.08"/>
      <circle cx="130" cy="580" r="170" fill="#f59e0b" opacity="0.07"/>
      
    <rect x="180" y="95" width="840" height="470" rx="28" fill="#ffffff" opacity="0.84" filter="url(#shadow-power-bi-sales-dashboard)"/>
    <path d="M270 500H935" stroke="#0f172a" stroke-opacity="0.12" stroke-width="8" stroke-linecap="round"/>
    <rect x="290" y="290" width="58" height="210" rx="18" fill="#f59e0b" opacity="0.9"/><rect x="390" y="190" width="58" height="310" rx="18" fill="#2563eb" opacity="0.9"/><rect x="490" y="335" width="58" height="165" rx="18" fill="#10b981" opacity="0.9"/><rect x="590" y="110" width="58" height="390" rx="18" fill="#f59e0b" opacity="0.9"/><rect x="690" y="225" width="58" height="275" rx="18" fill="#2563eb" opacity="0.9"/><rect x="790" y="45" width="58" height="455" rx="18" fill="#10b981" opacity="0.9"/>
    <path d="M300 408 C410 312 455 354 540 250 S700 238 790 158 875 170 940 118" fill="none" stroke="#0f172a" stroke-width="12" stroke-linecap="round" opacity="0.62"/>
    <path d="M894 126l52-16-10 54" fill="none" stroke="#0f172a" stroke-width="12" stroke-linecap="round" stroke-linejoin="round" opacity="0.62"/>
  
    </svg>
  