
    <svg width="1200" height="675" viewBox="0 0 1200 675" xmlns="http://www.w3.org/2000/svg" role="img" aria-label="sap-finance-module-optimization thumbnail">
      
    <defs>
      <linearGradient id="bg-sap-finance-module-optimization" x1="0" y1="0" x2="1" y2="1">
        <stop offset="0" stop-color="#f8fafc"/>
        <stop offset="0.45" stop-color="#eef5ff"/>
        <stop offset="1" stop-color="#f8fafc"/>
      </linearGradient>
      <radialGradient id="a-sap-finance-module-optimization" cx="34%" cy="34%" r="64%">
        <stop offset="0" stop-color="#0f766e" stop-opacity="0.34"/>
        <stop offset="1" stop-color="#0f766e" stop-opacity="0"/>
      </radialGradient>
      <radialGradient id="b-sap-finance-module-optimization" cx="78%" cy="24%" r="58%">
        <stop offset="0" stop-color="#84cc16" stop-opacity="0.26"/>
        <stop offset="1" stop-color="#84cc16" stop-opacity="0"/>
      </radialGradient>
      <radialGradient id="c-sap-finance-module-optimization" cx="72%" cy="78%" r="62%">
        <stop offset="0" stop-color="#f97316" stop-opacity="0.24"/>
        <stop offset="1" stop-color="#f97316" stop-opacity="0"/>
      </radialGradient>
      <linearGradient id="main-sap-finance-module-optimization" x1="0" y1="0" x2="1" y2="1">
        <stop offset="0" stop-color="#0f766e"/>
        <stop offset="0.55" stop-color="#84cc16"/>
        <stop offset="1" stop-color="#f97316"/>
      </linearGradient>
      <filter id="shadow-sap-finance-module-optimization" x="-20%" y="-20%" width="140%" height="140%">
        <feDropShadow dx="0" dy="18" stdDeviation="22" flood-color="#0f172a" flood-opacity="0.16"/>
      </filter>
      <pattern id="grid-sap-finance-module-optimization" width="42" height="42" patternUnits="userSpaceOnUse">
        <path d="M 42 0 L 0 0 0 42" fill="none" stroke="#0f172a" stroke-opacity="0.045" stroke-width="1"/>
      </pattern>
    </defs>
  
      <rect width="1200" height="675" fill="url(#bg-sap-finance-module-optimization)"/>
      <rect width="1200" height="675" fill="url(#grid-sap-finance-module-optimization)"/>
      <rect width="1200" height="675" fill="url(#a-sap-finance-module-optimization)"/>
      <rect width="1200" height="675" fill="url(#b-sap-finance-module-optimization)"/>
      <rect width="1200" height="675" fill="url(#c-sap-finance-module-optimization)"/>
      <circle cx="1050" cy="92" r="118" fill="#84cc16" opacity="0.08"/>
      <circle cx="130" cy="580" r="170" fill="#0f766e" opacity="0.07"/>
      
    <rect x="190" y="98" width="820" height="462" rx="28" fill="#ffffff" opacity="0.84" filter="url(#shadow-sap-finance-module-optimization)"/>
    <rect x="310" y="170" width="580" height="350" rx="34" fill="#ffffff" opacity="0.58"/>
    <path d="M348 455 C452 362 510 384 594 288 S735 220 842 164" fill="none" stroke="#0f766e" stroke-width="16" stroke-linecap="round"/>
    <path d="M346 380h510M346 300h510M346 220h510" stroke="#0f172a" stroke-width="5" stroke-opacity="0.08" stroke-linecap="round"/>
    <circle cx="408" cy="455" r="24" fill="#0f766e"/><circle cx="536" cy="373" r="24" fill="#84cc16"/><circle cx="664" cy="313" r="24" fill="#f97316"/><circle cx="792" cy="235" r="24" fill="#0f766e"/>
    <path d="M758 170l90-20-22 88" fill="none" stroke="#0f766e" stroke-width="16" stroke-linecap="round" stroke-linejoin="round"/>
    <rect x="235" y="230" width="120" height="220" rx="24" fill="#84cc16" opacity="0.75"/>
    <rect x="845" y="310" width="120" height="140" rx="24" fill="#f97316" opacity="0.75"/>
  
    </svg>
  