
    <svg width="1200" height="675" viewBox="0 0 1200 675" xmlns="http://www.w3.org/2000/svg" role="img" aria-label="tech-market-research-analysis thumbnail">
      
    <defs>
      <linearGradient id="bg-tech-market-research-analysis" x1="0" y1="0" x2="1" y2="1">
        <stop offset="0" stop-color="#f8fafc"/>
        <stop offset="0.45" stop-color="#eef5ff"/>
        <stop offset="1" stop-color="#f8fafc"/>
      </linearGradient>
      <radialGradient id="a-tech-market-research-analysis" cx="34%" cy="34%" r="64%">
        <stop offset="0" stop-color="#0284c7" stop-opacity="0.34"/>
        <stop offset="1" stop-color="#0284c7" stop-opacity="0"/>
      </radialGradient>
      <radialGradient id="b-tech-market-research-analysis" cx="78%" cy="24%" r="58%">
        <stop offset="0" stop-color="#a3e635" stop-opacity="0.26"/>
        <stop offset="1" stop-color="#a3e635" stop-opacity="0"/>
      </radialGradient>
      <radialGradient id="c-tech-market-research-analysis" cx="72%" cy="78%" r="62%">
        <stop offset="0" stop-color="#f59e0b" stop-opacity="0.24"/>
        <stop offset="1" stop-color="#f59e0b" stop-opacity="0"/>
      </radialGradient>
      <linearGradient id="main-tech-market-research-analysis" x1="0" y1="0" x2="1" y2="1">
        <stop offset="0" stop-color="#0284c7"/>
        <stop offset="0.55" stop-color="#a3e635"/>
        <stop offset="1" stop-color="#f59e0b"/>
      </linearGradient>
      <filter id="shadow-tech-market-research-analysis" x="-20%" y="-20%" width="140%" height="140%">
        <feDropShadow dx="0" dy="18" stdDeviation="22" flood-color="#0f172a" flood-opacity="0.16"/>
      </filter>
      <pattern id="grid-tech-market-research-analysis" width="42" height="42" patternUnits="userSpaceOnUse">
        <path d="M 42 0 L 0 0 0 42" fill="none" stroke="#0f172a" stroke-opacity="0.045" stroke-width="1"/>
      </pattern>
    </defs>
  
      <rect width="1200" height="675" fill="url(#bg-tech-market-research-analysis)"/>
      <rect width="1200" height="675" fill="url(#grid-tech-market-research-analysis)"/>
      <rect width="1200" height="675" fill="url(#a-tech-market-research-analysis)"/>
      <rect width="1200" height="675" fill="url(#b-tech-market-research-analysis)"/>
      <rect width="1200" height="675" fill="url(#c-tech-market-research-analysis)"/>
      <circle cx="1050" cy="92" r="118" fill="#a3e635" opacity="0.08"/>
      <circle cx="130" cy="580" r="170" fill="#0284c7" opacity="0.07"/>
      
    <rect x="205" y="105" width="790" height="455" rx="28" fill="#ffffff" opacity="0.84" filter="url(#shadow-tech-market-research-analysis)"/>
    <circle cx="550" cy="310" r="150" fill="url(#main-tech-market-research-analysis)" opacity="0.86"/>
    <path d="M400 310h300M550 160c-70 74-70 226 0 300M550 160c70 74 70 226 0 300" fill="none" stroke="#ffffff" stroke-width="10" stroke-linecap="round" opacity="0.68"/>
    <path d="M438 214c70 34 153 34 224 0M438 406c70-34 153-34 224 0" fill="none" stroke="#ffffff" stroke-width="10" stroke-linecap="round" opacity="0.55"/>
    <circle cx="705" cy="425" r="84" fill="#ffffff" opacity="0.9"/>
    <circle cx="705" cy="425" r="48" fill="none" stroke="#0284c7" stroke-width="18"/>
    <path d="M766 486l106 106" stroke="#0284c7" stroke-width="24" stroke-linecap="round"/>
    <path d="M820 236c42-40 86-58 136-66" stroke="#f59e0b" stroke-width="12" stroke-linecap="round" opacity="0.8"/>
  
    </svg>
  